<?xml version="1.0"?>
<svg xmlns="http://www.w3.org/2000/svg" xmlns:xlink="http://www.w3.org/1999/xlink" version="1.1" id="Capa_1" x="0px" y="0px" viewBox="0 0 490.667 490.667" style="enable-background:new 0 0 490.667 490.667;" xml:space="preserve" width="512px" height="512px"><g><g>
	<g>
		<path d="M96,42.667H53.333C23.936,42.667,0,66.603,0,96v42.667C0,168.064,23.936,192,53.333,192H96    c29.397,0,53.333-23.936,53.333-53.333V96C149.333,66.603,125.397,42.667,96,42.667z M128,138.667c0,17.643-14.357,32-32,32    H53.333c-17.643,0-32-14.357-32-32V96c0-17.643,14.357-32,32-32H96c17.643,0,32,14.357,32,32V138.667z" data-original="#000000" class="active-path" data-old_color="#000000" fill="#666666"/>
	</g>
</g><g>
	<g>
		<path d="M437.333,298.667h-42.667c-29.397,0-53.333,23.936-53.333,53.333v42.667c0,29.397,23.936,53.333,53.333,53.333h42.667    c29.397,0,53.333-23.936,53.333-53.333V352C490.667,322.603,466.731,298.667,437.333,298.667z M469.333,394.667    c0,17.643-14.357,32-32,32h-42.667c-17.643,0-32-14.357-32-32V352c0-17.643,14.357-32,32-32h42.667c17.643,0,32,14.357,32,32    V394.667z" data-original="#000000" class="active-path" data-old_color="#000000" fill="#666666"/>
	</g>
</g><g>
	<g>
		<path d="M266.667,170.667H224c-29.397,0-53.333,23.936-53.333,53.333v42.667C170.667,296.064,194.603,320,224,320h42.667    C296.064,320,320,296.064,320,266.667V224C320,194.603,296.064,170.667,266.667,170.667z M298.667,266.667    c0,17.643-14.357,32-32,32H224c-17.643,0-32-14.357-32-32V224c0-17.643,14.357-32,32-32h42.667c17.643,0,32,14.357,32,32V266.667z    " data-original="#000000" class="active-path" data-old_color="#000000" fill="#666666"/>
	</g>
</g><g>
	<g>
		<path d="M74.667,0C68.779,0,64,4.779,64,10.667v42.667C64,59.221,68.779,64,74.667,64s10.667-4.779,10.667-10.667V10.667    C85.333,4.779,80.555,0,74.667,0z" data-original="#000000" class="active-path" data-old_color="#000000" fill="#666666"/>
	</g>
</g><g>
	<g>
		<path d="M74.667,170.667c-5.888,0-10.667,4.779-10.667,10.667V480c0,5.888,4.779,10.667,10.667,10.667S85.333,485.888,85.333,480    V181.333C85.333,175.445,80.555,170.667,74.667,170.667z" data-original="#000000" class="active-path" data-old_color="#000000" fill="#666666"/>
	</g>
</g><g>
	<g>
		<path d="M245.333,298.667c-5.888,0-10.667,4.779-10.667,10.667V480c0,5.888,4.779,10.667,10.667,10.667S256,485.888,256,480    V309.333C256,303.445,251.221,298.667,245.333,298.667z" data-original="#000000" class="active-path" data-old_color="#000000" fill="#666666"/>
	</g>
</g><g>
	<g>
		<path d="M245.333,0c-5.888,0-10.667,4.779-10.667,10.667v170.667c0,5.888,4.779,10.667,10.667,10.667S256,187.221,256,181.333    V10.667C256,4.779,251.221,0,245.333,0z" data-original="#000000" class="active-path" data-old_color="#000000" fill="#666666"/>
	</g>
</g><g>
	<g>
		<path d="M416,0c-5.888,0-10.667,4.779-10.667,10.667v298.667c0,5.888,4.779,10.667,10.667,10.667    c5.888,0,10.667-4.779,10.667-10.667V10.667C426.667,4.779,421.888,0,416,0z" data-original="#000000" class="active-path" data-old_color="#000000" fill="#666666"/>
	</g>
</g><g>
	<g>
		<path d="M416,426.667c-5.888,0-10.667,4.779-10.667,10.667V480c0,5.888,4.779,10.667,10.667,10.667    c5.888,0,10.667-4.779,10.667-10.667v-42.667C426.667,431.445,421.888,426.667,416,426.667z" data-original="#000000" class="active-path" data-old_color="#000000" fill="#666666"/>
	</g>
</g></g> </svg>
