<?xml version="1.0"?>
<svg xmlns="http://www.w3.org/2000/svg" height="512px" viewBox="0 0 512 512" width="512px"><g><path d="m512 60v163h-40v-163c0-11.027344-8.972656-20-20-20h-392c-11.027344 0-20 8.972656-20 20v392c0 11.027344 8.972656 20 20 20h215v40h-215c-33.085938 0-60-26.914062-60-60v-392c0-33.085938 26.914062-60 60-60h392c33.085938 0 60 26.914062 60 60zm-197 19v40h40v-40zm-197 0h-40v40h40zm79 0h-40v40h40zm197 0v40h40v-40zm-275 314h-40v40h40zm37 40h40v-40h-40zm80-314h40v-40h-40zm-1 314h40v-40h-40zm80-169h197v40h-23v2.605469c0 38.175781-18.59375 64.730469-34.503906 80.46875 15.910156 15.734375 34.503906 42.289062 34.503906 80.46875v4.457031h23v40h-197v-40h26v-4.457031c0-38.179688 18.59375-64.734375 34.503906-80.46875-15.910156-15.734375-34.503906-42.292969-34.503906-80.46875v-2.605469h-26zm134 208v-4.457031c0-35.691407-25.8125-56.003907-34-61.550781-8.1875 5.542968-34 25.855468-34 61.550781v4.457031zm0-168h-68v2.605469c0 35.691406 25.8125 56 34 61.546875 8.1875-5.542969 34-25.855469 34-61.546875zm0 0" data-original="#000000" class="active-path" data-old_color="#000000" fill="#666666"/></g> </svg>
