<?xml version="1.0"?>
<svg xmlns="http://www.w3.org/2000/svg" id="Capa_1" enable-background="new 0 0 512 512" height="512px" viewBox="0 0 512 512" width="512px"><g><g><path d="m488.705 421.016h-44.84v-406.016c0-8.284-6.716-15-15-15h-329.832c-.1.023-6.804-.369-11.606 5.416-9.39 11.304-66.288 79.806-75.67 91.102-8.096 9.747-1.156 24.584 11.539 24.584h60.647l-.078 375.896c-.002 8.28 6.716 15.003 15 15.003h329.42c4.002 0 7.839-1.6 10.656-4.443l60.42-60.984c9.363-9.452 2.644-25.558-10.656-25.558zm-433.451-329.914 28.702-34.556-.007 34.556zm58.708-61.102h299.902v391.016h-254.899c-4.021 0-7.873 1.614-10.692 4.48l-34.4 34.964zm308.069 452h-287.265l30.484-30.984h287.478z" data-original="#000000" class="active-path" data-old_color="#000000" fill="#FFB606"/><path d="m343.31 215.458-12.046 12.043c-16.528-19.258-41.036-31.481-68.349-31.481-49.654 0-90.051 40.387-90.051 90.03s40.396 90.031 90.051 90.031c63 0 106.529-63.346 84.183-121.989l17.423-17.418c5.858-5.857 5.859-15.354.003-21.213-5.859-5.858-15.356-5.86-21.214-.003zm-80.395 130.624c-33.112 0-60.051-26.93-60.051-60.031 0-56.65 71.75-81.758 107.091-37.247l-31.091 31.083-19.395-19.39c-5.857-5.856-15.354-5.856-21.214.003-5.856 5.858-5.855 15.356.003 21.213l30 29.992c5.858 5.855 15.352 5.857 21.211 0l33.027-33.018c4.457 36.228-23.975 67.395-59.581 67.395z" data-original="#000000" class="active-path" data-old_color="#000000" fill="#FFB606"/><path d="m172.965 106.102h179.899c8.284 0 15-6.716 15-15s-6.716-15-15-15h-179.899c-8.284 0-15 6.716-15 15s6.716 15 15 15z" data-original="#000000" class="active-path" data-old_color="#000000" fill="#FFB606"/><path d="m172.965 166.086h179.899c8.284 0 15-6.716 15-15s-6.716-15-15-15h-179.899c-8.284 0-15 6.716-15 15s6.716 15 15 15z" data-original="#000000" class="active-path" data-old_color="#000000" fill="#FFB606"/></g></g> </svg>
