<?xml version="1.0"?>
<svg xmlns="http://www.w3.org/2000/svg" xmlns:xlink="http://www.w3.org/1999/xlink" version="1.1" id="Capa_1" x="0px" y="0px" viewBox="0 0 512 512" style="enable-background:new 0 0 512 512;" xml:space="preserve" width="512px" height="512px"><g><g>
	<g>
		<g>
			<path d="M247.458,110.948c-10.042,13.417-98.125,132.74-98.125,187.719c0,58.813,47.854,106.667,106.667,106.667     s106.667-47.854,106.667-106.667c0-54.979-88.083-174.302-98.125-187.719C260.5,105.552,251.5,105.552,247.458,110.948z      M256,362.667c-35.292,0-64-28.708-64-64c0-5.896,4.771-10.667,10.667-10.667c5.896,0,10.667,4.771,10.667,10.667     c0,23.531,19.146,42.667,42.667,42.667c5.896,0,10.667,4.771,10.667,10.667C266.667,357.896,261.896,362.667,256,362.667z" data-original="#000000" class="active-path" data-old_color="#000000" fill="#FFB606"/>
			<path d="M501.333,234.667h-11.747C479.397,122.283,389.717,32.603,277.333,22.414V10.667C277.333,4.771,272.563,0,266.667,0     h-21.333c-5.896,0-10.667,4.771-10.667,10.667v11.747C122.283,32.603,32.603,122.283,22.414,234.667H10.667     C4.771,234.667,0,239.438,0,245.333v21.333c0,5.896,4.771,10.667,10.667,10.667h11.747     c10.189,112.384,99.868,202.064,212.253,212.253v11.747c0,5.896,4.771,10.667,10.667,10.667h21.333     c5.896,0,10.667-4.771,10.667-10.667v-11.747c112.384-10.189,202.064-99.868,212.253-212.253h11.747     c5.896,0,10.667-4.771,10.667-10.667v-21.333C512,239.438,507.229,234.667,501.333,234.667z M437.333,277.333h9.408     c-9.875,88.837-80.561,159.533-169.408,169.409v-9.409c0-5.896-4.771-10.667-10.667-10.667h-21.333     c-5.896,0-10.667,4.771-10.667,10.667v9.409c-88.846-9.876-159.533-80.572-169.408-169.409h9.408     c5.896,0,10.667-4.771,10.667-10.667v-21.333c0-5.896-4.771-10.667-10.667-10.667h-9.408     c9.875-88.837,80.561-159.533,169.408-169.409v9.409c0,5.896,4.771,10.667,10.667,10.667h21.333     c5.896,0,10.667-4.771,10.667-10.667v-9.409c88.846,9.876,159.533,80.572,169.408,169.409h-9.408     c-5.896,0-10.667,4.771-10.667,10.667v21.333C426.667,272.563,431.438,277.333,437.333,277.333z" data-original="#000000" class="active-path" data-old_color="#000000" fill="#FFB606"/>
		</g>
	</g>
</g></g> </svg>
