<?xml version="1.0"?>
<svg xmlns="http://www.w3.org/2000/svg" xmlns:xlink="http://www.w3.org/1999/xlink" version="1.1" id="Capa_1" x="0px" y="0px" viewBox="0 0 297 297" style="enable-background:new 0 0 297 297;" xml:space="preserve" width="512px" height="512px" class=""><g><g>
	<path d="M50.794,43.604c0,59.842,0,243.698,0,243.698c0,5.356,4.342,9.698,9.698,9.698h176.017c5.356,0,9.698-4.342,9.698-9.698   V47.279c0-5.356-4.342-9.698-9.698-9.698h-6.304V9.7c0-2.906-1.302-5.658-3.55-7.5c-2.248-1.843-5.202-2.584-8.05-2.01   L58.59,32.193C53.337,33.244,50.794,38.249,50.794,43.604z M210.809,37.581h-80.26l80.26-16.052V37.581z M226.811,277.604H70.189   V56.977h156.621V277.604z" data-original="#000000" class="active-path" data-old_color="#000000" fill="#FFB606"/>
	<path d="M147.53,236.631c36.897,0,66.916-30.018,66.916-66.916s-30.018-66.916-66.916-66.916s-66.916,30.018-66.916,66.916   S110.633,236.631,147.53,236.631z M99.701,144.016h12.357c-1.402,6.046-2.317,12.556-2.667,19.396H93.6   C94.407,156.466,96.519,149.914,99.701,144.016z M201.461,163.411h-15.791c-0.35-6.84-1.266-13.35-2.667-19.396h12.357   C198.541,149.914,200.654,156.466,201.461,163.411z M195.359,195.414h-12.357c1.402-6.046,2.317-12.556,2.667-19.396h15.791   C200.654,182.964,198.541,189.516,195.359,195.414z M141.227,208.022v14.08c-4.18-2.497-8.218-7.357-11.52-14.08H141.227z    M125.055,195.414c-1.56-5.8-2.636-12.313-3.041-19.396h19.213v19.396H125.055z M153.834,222.102v-14.08h11.52   C162.052,214.745,158.014,219.605,153.834,222.102z M153.834,195.414v-19.396h19.213c-0.405,7.082-1.481,13.596-3.041,19.396   H153.834z M173.047,163.411h-19.213v-19.396h16.172C171.566,149.816,172.642,156.329,173.047,163.411z M153.834,131.408v-14.08   c4.18,2.497,8.218,7.357,11.52,14.08H153.834z M141.227,117.328v14.08h-11.52C133.009,124.685,137.047,119.825,141.227,117.328z    M141.227,144.016v19.396h-19.213c0.405-7.082,1.481-13.596,3.041-19.396H141.227z M109.391,176.019   c0.35,6.84,1.266,13.35,2.667,19.396H99.701c-3.182-5.898-5.295-12.45-6.102-19.396H109.391z M109.073,208.022h6.868   c1.18,2.997,2.497,5.806,3.938,8.409C115.929,214.084,112.296,211.258,109.073,208.022z M175.182,216.431   c1.44-2.603,2.758-5.412,3.938-8.409h6.868C182.764,211.258,179.132,214.084,175.182,216.431z M185.988,131.408h-6.868   c-1.18-2.996-2.497-5.806-3.938-8.409C179.132,125.346,182.764,128.172,185.988,131.408z M119.878,122.999   c-1.44,2.603-2.758,5.412-3.938,8.409h-6.868C112.296,128.172,115.929,125.346,119.878,122.999z" data-original="#000000" class="active-path" data-old_color="#000000" fill="#FFB606"/>
</g></g> </svg>
