<?xml version="1.0"?>
<svg xmlns="http://www.w3.org/2000/svg" xmlns:xlink="http://www.w3.org/1999/xlink" version="1.1" id="Capa_1" x="0px" y="0px" viewBox="0 0 512 512" style="enable-background:new 0 0 512 512;" xml:space="preserve" width="512px" height="512px" class=""><g><g>
	<g>
		<g>
			<path d="M269.992,135.209c0-74.398-60.527-134.925-134.925-134.925S0.142,60.811,0.142,135.209     c0,67.26,49.472,123.178,113.937,133.29v150.552h-54.97v39.978h54.97V512h39.978v-52.971h54.97v-39.978h-54.97v-150.26     C219.495,259.533,269.992,203.162,269.992,135.209z M135.067,230.156c-52.354,0-94.947-42.593-94.947-94.947     c0-52.354,42.593-94.947,94.947-94.947s94.947,42.593,94.947,94.947S187.421,230.156,135.067,230.156z" data-original="#000000" class="active-path" data-old_color="#000000" fill="#FFB606"/>
			<path d="M395.922,243.493V76.526l34.981,34.981l28.268-28.268L375.934,0l-83.238,83.238l28.268,28.268l34.981-34.981v167.259     c-64.465,10.111-113.937,66.029-113.937,133.29c0,74.398,60.527,134.925,134.925,134.925s134.925-60.527,134.925-134.925     C511.858,309.122,461.361,252.751,395.922,243.493z M376.933,472.022c-52.354,0-94.947-42.593-94.947-94.947     s42.593-94.947,94.947-94.947s94.947,42.593,94.947,94.947S429.287,472.022,376.933,472.022z" data-original="#000000" class="active-path" data-old_color="#000000" fill="#FFB606"/>
		</g>
	</g>
</g></g> </svg>
